# 3ds Max Wavefront OBJ Exporter v0.97b - (c)2007 guruware
# File Created: 24.09.2012 13:38:01

#
# object Object01
#

v  -0.0000 0.0000 8.3333
v  4.1580 0.0000 8.3333
v  -0.0000 0.0000 -8.3333
v  4.1580 0.0000 -8.3333
# 4 vertices

vn 0.0000 1.0000 -0.0000
vn 0.0000 1.0000 -0.0000
vn 0.0000 1.0000 -0.0000
vn 0.0000 1.0000 -0.0000
# 4 vertex normals

vt 0.0000 0.0000 0.0000
vt 1.0000 0.0000 0.0000
vt 0.0000 0.6667 0.0000
vt 1.0000 0.6667 0.0000
# 4 texture coords

g Object01
f 1/1/1 2/2/2 4/4/3 3/3/4 
# 1 polygons

